<svg xmlns="http://www.w3.org/2000/svg" width="156" height="212" stroke="none" stroke-linecap="round" stroke-linejoin="round" fill="#000" fill-rule="nonzero">
    <path d="M78.3429.0112c-.0052.0052-.7796.0151-1.7139.0151l-2.3498.0506-1.4154.1012c-5.6335.389-11.5183 1.728-16.8744 3.8556-4.4108 1.7485-9.0405 4.351-12.6985 7.1303-1.8904 1.4403-2.8782 2.2791-4.5762 3.8912-1.506 1.4249-1.6823 1.6019-2.5686 2.5569-4.6032 4.9469-8.3305 10.8948-10.6747 17.0549-.8064 2.1022-1.5164 4.3815-1.9277 6.1396a31.491 31.491 0 0 1-.208.8847c-.4915 2.0164-.956 5.1848-1.1484 7.883-.0535.7532-.0746 5.195-.0319 5.7609l.0587.8086c.0321.5155.2137 2.3802.267 2.7289l.0801.5809c.4594 3.3555 1.3349 6.9383 2.4297 9.9552l.3151.8693c.5177 1.4452 1.4256 3.5018 2.5205 5.69l.2351.4901c0 .0101.1439.3083.3254.6671.1816.3534.4273.8641.5554 1.1269l.9879 2.0214 1.5326 3.1278.6087 1.2332.4753.9702c0 .0202.3364.7025.7797 1.5815.1601.3185.2882.5813.2882.5966 0 .0101.2191.4546.481.9903l.5339 1.0761 1.3938 2.8401.9504 1.9454 1.3937 2.8452.5341 1.0766.4804.9951c0 .0105.1388.2986.315.6421l.7531 1.5312.5339 1.0862.5341 1.0867 1.5592 3.1837.534 1.0863 1.164 2.3752.5447 1.1116 1.0306 2.0972.6409 1.3139.6943 1.415.5071 1.0357.481.9853.79 1.5921 1.2016 2.4506.9985 2.0468 1.0148 2.0721 1.2013 2.4506.7477 1.5158.5072 1.0363.9668 1.9657.2616.5357c0 .01.2669.561.5926 1.2229l.7315 1.4806c.0696.1516.2618.5354.4165.849l.2886.5913c0 .0098.1442.3082.3256.6668l.5661 1.1522.7902 1.6171 1.0307 2.0973.8649 1.7686.7317 1.4907 1.7623 3.5876.475.9602c.0376.0811.2673.5508.5075 1.0361l.9024 1.8445 1.0147 2.072 1.1746 2.4002 1.5597 3.1834a21.238 21.238 0 0 1 .2987.6066c1.0522 2.2184 1.4792 2.9056 2.3071 3.694 1.4255 1.3591 3.2305 2.0364 5.3133 1.9911.8755-.0153 1.0733-.0407 1.8529-.2273 1.8262-.445 3.5032-1.6933 4.4161-3.2999.2243-.3994 1.4151-2.825 2.1147-4.3308l.4164-.8593.9986-2.0717 1.0252-2.1225.561-1.162.6301-1.314 1.3616-2.8298.8547-1.7687 1.2385-2.5771.9614-1.9964 2.8993-6.0134 1.2657-2.6277 1.084-2.2486.3899-.8085.972-2.0214 1.0251-2.1225.561-1.1624 1.1745-2.4256.2296-.4801c.0481-.116.9721-2.0463 1.4418-3.0064l1.2391-2.5773.3896-.8085 1.3137-2.7241c.0588-.1158.47-.9803.9238-1.9202l1.2335-2.557 1.2657-2.6274 1.0841-2.249.3631-.7579c.08-.1516.5285-1.0864 1.0038-2.0717l2.7502-5.7004.2348-.4901c0-.0202 1.3564-2.8299 1.9331-4.0173l.748-1.5667c.0584-.1266.2453-.5103.4163-.8589l1.5377-3.1837 3.1614-6.5695 1.0948-2.274.3897-.8086c.8863-1.794 2.0131-4.2143 2.4406-5.2552l.3203-.7833c.2244-.5408.7048-1.8497.9504-2.6025 1.2125-3.6486 1.9864-7.191 2.3602-10.8395.0268-.2527.1176-1.3898.187-2.3498.1173-1.5816.0536-5.22-.1334-7.2768-.2991-3.3099-1.0147-6.9131-2.013-10.1318l-.2297-.758c-.0374-.1415-.1017-.3237-.1335-.4043-.0376-.086-.0962-.2527-.1335-.3793-.2566-.8488-1.3405-3.5977-1.7623-4.4618-.0749-.1568-.1334-.2932-.1334-.3133s-.2406-.5206-.5394-1.1271c-1.8851-3.8457-4.1601-7.3829-6.7978-10.5715-.9134-1.0967-2.1736-2.5064-2.9907-3.3352-.4269-.4346-2.6858-2.5672-3.1289-2.9561-.8226-.728-2.2908-1.9153-3.0974-2.5167-2.6645-1.971-5.0942-3.4969-7.9033-4.9471-1.148-.5963-2.5469-1.2382-4.2986-1.9758-2.7127-1.137-6.5043-2.3095-9.4518-2.9209l-1.0947-.2326C87.6611.825 85.2794.4812 83.3036.2841c-1.3349-.1363-4.8968-.3334-4.9607-.2729zm-.3527 27.2071c5.3936.0456 10.6588 1.9657 14.9256 5.4578.7101.5812 2.1946 2.0213 2.7286 2.6477 2.9103 3.4111 4.6724 7.3022 5.2012 11.4461.0961.7782.2029 2.6428.1816 3.2341-.1283 3.4211-.9347 6.5339-2.4457 9.3892-1.1963 2.274-2.59 4.1031-4.4856 5.9023-1.8265 1.7282-3.6206 2.9661-5.9329 4.0931-2.2054 1.0763-4.5924 1.8191-6.9687 2.1676l-.694.1014c-.075.0151-.2993.0353-.5073.0554l-.4005.0456c-.0162.0101-.486.0355-1.0414.0507-.5609.0202-1.0305.0454-1.0521.0554-.0159.0152-.4486 0-.961-.0303-2.4831-.1363-4.2241-.4245-6.2103-1.0209-2.8999-.8691-5.3937-2.1475-7.9035-4.0525-.7422-.561-2.675-2.4054-3.316-3.1635-2.9852-3.5324-4.6994-7.4586-5.1744-11.8753-.0908-.8593-.1124-3.3857-.0322-4.1942.3631-3.6993 1.7088-7.3173 3.8662-10.3848 1.8904-2.6883 4.491-5.0483 7.4119-6.7209 2.9101-1.6727 6.0181-2.6784 9.5799-3.1078.5874-.0708 1.725-.1465 1.8694-.1214.0583.0103.6726.02 1.3612.0252zM50.7033 143.1219l-6.6488 1.2282-1.2813.2776-4.3735 1.0459-1.3402.3437-1.8958.5309-.7744.2273-2.2427.6925-1.3349.4288-1.4418.4963c-8.4374 2.9558-15.2725 6.6293-20.239 10.874-3.7272 3.1889-6.3865 6.7166-7.8548 10.4251-.4383 1.1169-.8971 2.8-1.0841 4.0172-.1761 1.1024-.2513 3.492-.1389 4.3966.3415 2.8802.8436 4.5792 2.1092 7.1507.267.5457 1.0469 1.8445 1.5381 2.552 2.4778 3.6135 6.2262 6.9988 11.086 10.026 3.0598 1.9102 7.3101 3.997 11.2994 5.5636.9663.379 1.3186.5104 2.8834 1.0717 1.9063.6824 5.041 1.6824 6.4614 2.066l.908.2483c2.0502.5655 4.6454 1.2024 6.7815 1.6623l1.6553.3536c1.6986.3691 5.981 1.1066 8.491 1.4662 3.3695.4793 7.449.9237 10.7601 1.1667l.9344.0756c.3097.0254.9933.0703 1.5218.101l1.2548.0812c2.7075.2021 10.4823.3077 14.4446.2021l1.736-.0403c.0426 0 .4431-.0201.8808-.0406l1.4953-.0763 2.0025-.1003c.1602-.0152.4966-.0357.7477-.0512.8008-.0456 3.2251-.2268 3.4175-.2519.1016-.0162.502-.0512.8808-.0766l.801-.071c.0588-.0092.2777-.0297.481-.0495 1.1586-.1063 4.5599-.4955 5.9537-.6877 3.9093-.5355 6.4297-.9604 9.9327-1.6725 2.5418-.5203 6.4828-1.456 8.1699-1.9403.1336-.0413.4916-.142.8012-.2278 3.7113-1.0459 7.7325-2.4157 10.8133-3.699 1.677-.6923 2.099-.8792 3.6581-1.6174 2.1255-1 2.7875-1.3433 4.6192-2.38 5.6816-3.2186 10.1297-7.0486 12.928-11.1273 3.188-4.6488 4.3522-9.7776 3.3539-14.781-.5556-2.7947-1.6343-5.2811-3.402-7.8579-.267-.3889-.5712-.8085-.6783-.9346l-.315-.4048c-.0745-.0954-.3629-.4493-.6404-.7778-4.2508-5.0179-11.0752-9.5201-19.7634-13.0326-1.6077-.6471-4.1709-1.6121-4.8064-1.8039l-.8273-.273c-.5875-.2021-1.7461-.5705-3.0971-.9855-1.0576-.3285-3.108-.899-4.7259-1.3091l-2.4832-.616-.7477-.1722-1.5221-.328c-1.0624-.2331-4.7686-.9558-5.4468-1.0667l-1.2283-.1971-.9927-.1565c-.0271 0-.1071.1063-.166.2377l-.8808 1.834-.4167.859-1.9222 3.9925-.8917 1.8442-.7317 1.5365c-.1979.3995-.3524.7531-.3524.7884s.1654.0802.4696.1208c.2567.0304 1.4154.2077 2.574.3893 8.838 1.3747 16.6982 3.4718 23.6295 6.3015.8707.3536 1.6878.7177 2.9799 1.3285 3.444 1.628 6.2849 3.3461 8.6028 5.2104.8273.6676 2.408 2.1935 2.9798 2.871 1.7244 2.0512 2.5683 3.9208 2.6432 5.836.1172 3.078-1.8958 6.2916-5.9652 9.5003-1.2602 1.0007-3.7963 2.6538-5.1527 3.3659-.059.03-.3578.1918-.6674.3585-5.1266 2.7693-12.0848 5.2553-19.6246 7.0193l-1.3618.3239c-.1016.024-.7263.1607-1.3883.2974-5.2118 1.0915-10.317 1.8445-16.314 2.4058l-4.1385.3084-.9878.0657c-.3205.0254-.8756.0448-1.223.0498s-.6511.0205-.6728.0307-.454.035-.9662.0509l-2.1736.0805c-1.5807.0604-7.2999.0604-8.8752-.0053l-2.0825-.0752c-1.8635-.0611-3.6258-.1523-5.5805-.3031l-1.3613-.1017-1.4689-.1261-1.0678-.1007-.9614-.1017-1.7888-.2023a96.625 96.625 0 0 1-3.2041-.4095l-1.0678-.1515c-.9079-.1205-3.5564-.5606-4.9129-.8082-1.5915-.2932-2.841-.556-5.6603-1.1826-.7852-.172-2.7393-.6775-4.2987-1.101-3.0919-.8495-7.0007-2.1635-9.425-3.1688l-.8009-.3281c-.2723-.106-.4539-.1876-1.4689-.6316-1.2067-.5309-3.1716-1.4966-4.1113-2.0222l-.9561-.5309c-.7744-.4288-2.4621-1.5005-3.2631-2.0713-3.097-2.2034-5.2597-4.4923-6.3811-6.7611-.2933-.5863-.6619-1.6679-.7527-2.208-.1071-.6325-.0962-1.9869.021-2.5273.4058-1.8396 1.351-3.4973 3.0067-5.3058.5124-.5613 1.7944-1.7633 2.371-2.2186l.5339-.4295c.6409-.5306 2.2589-1.6425 3.391-2.3243l.9344-.5612c1.1857-.7227 3.9088-2.0826 5.6603-2.8297l.8009-.3444c2.0562-.8834 4.7367-1.8491 7.6522-2.7583 5.2388-1.633 11.0115-2.9159 17.4726-3.8908l2.0455-.2734c.0319 0 .0637-.0148.0637-.0251 0-.0155-.1172-.2677-.2615-.5609l-.5658-1.1681-.6464-1.3087-.3415-.6863c0-.0209-.6253-1.2939-1.0359-2.1229-.166-.3232-.2995-.6019-.2995-.6114s-.1918-.3995-.4215-.864l-.7798-1.5814-.5075-1.0367-.3632-.7474c-.2293-.4649-.2242-.4649-.5975-.4045zm5.847 12.9565c-9.6761 1.3446-17.4883 3.5022-22.7108 6.2714-.7052.3739-.7744.4096-1.5275.8741-3.455 2.1125-5.527 4.629-6.173 7.4893-.1441.6364-.203 2.1376-.1122 2.8805.2032 1.6674.956 3.3096 2.1841 4.7855.4433.5354 1.8851 1.8693 2.5205 2.3345 2.6699 1.9558 6.0771 3.5524 10.5464 4.9474l2.1093.6264.6408.182c.2619.0756 1.597.4041 2.5632.6318 2.8836.6823 6.0288 1.2632 9.4253 1.7432l.8544.1262c.1497.0254.4113.0606.5873.0762s.5608.0604.8545.1008l.7901.0963 4.6032.4546 3.4711.2525c3.5564.2223 5.8953.288 10.1992.2829l4.3255-.0201 1.5753-.0554c1.1002-.0306 2.3442-.0911 3.6313-.1717l1.3084-.0813c1.0786-.0606 4.037-.2927 4.5121-.3533.1015-.0155.3312-.0358.5074-.0507.3312-.0305.395-.0351 1.1213-.1216a26.969 26.969 0 0 1 .7209-.0807l.4275-.0507 1.0408-.1263c4.1282-.4851 8.8167-1.3236 12.5493-2.2537 6.3868-1.5866 11.2462-3.5575 14.5248-5.8973.2351-.1664.4377-.318.454-.3336s.1119-.0905.2134-.1613c.7102-.5107 1.8639-1.6425 2.4832-2.4458 1.3673-1.7686 1.9545-3.4417 1.9545-5.5336 0-1.0862-.0696-1.5615-.3632-2.5517-.6782-2.2489-2.5045-4.4317-5.2547-6.2711-1.3508-.9049-3.4122-1.9813-5.1475-2.6937l-1.5488-.6266c-3.9407-1.4556-8.4425-2.6329-13.4834-3.5169-1.7942-.3187-1.5697-.2833-3.7379-.6068-.3685-.0553-.8117-.1159-.9881-.1312l-.3203-.0354-.8651 1.7837-.9719 2.0163c-.0533.1262-.1815.3995-.2884.6064l-1.6072 3.3303c-.1655.3434-.299.6467-.299.6668 0 .0252.064.0456.144.0456.3419 0 3.5299.4246 5.3295.7128 2.5632.4091 6.4665 1.1975 7.823 1.5865l.8544.2277c4.0693 1.0557 7.743 2.5517 9.8523 4.0069.4701.3237 1.2229 1.0108 1.3991 1.2636l.128.1971-.1388.2017c-.6301.8997-2.7394 2.2287-5.0729 3.1939-2.5631 1.0662-4.8648 1.7841-8.3571 2.6078-2.5954.6114-6.4775 1.3185-9.0247 1.6423l-4.0584.4802-.721.0753c-.0585.0105-.4058.0405-.774.071l-.908.0809c-1.3027.1162-1.8263.1565-3.5243.2528l-1.5753.1008c-.1443.0102-.7583.0358-1.3619.0559-.6032.015-1.1105.0404-1.1371.0553-.0215.0104-1.8584.0304-4.0854.0403-4.0049.0157-6.018-.0149-8.2342-.1209l-1.8156-.0813-.9076-.0501c-.1335-.0156-.7317-.0605-1.3353-.1014-4.6508-.3182-9.393-.9095-13.6169-1.6979-5.0463-.945-9.2115-2.1224-12.4423-3.5222l-.6674-.2881c-.7901-.3435-2.3389-1.2229-2.9637-1.6876-.3739-.273-1.0091-.8694-1.1802-1.107l-.16-.212.1546-.2172c.358-.4852 1.3245-1.243 2.4405-1.9.6674-.3892 2.5421-1.2684 3.4975-1.6372 1.1803-.4549 1.3992-.5309 2.7983-.9706 1.6607-.5256 2.1522-.6621 4.1709-1.1622 2.7445-.6772 7.716-1.5665 10.7866-1.9204l.8277-.0956c.0748-.0154.2777-.0358.4536-.0507l.7052-.091.3791-.0507-.096-.2121-.4005-.8137c-.1712-.3333-.5181-1.0408-.7744-1.5664l-2.2269-4.5481-.5074-1.0512c-.0693-.1463-.1439-.2374-.1973-.2321-.048 0-.3953.0455-.7798.1007z"/>
</svg>